<mxfile host="app.diagrams.net" modified="2024-01-22T07:41:21.685Z" agent="Mozilla/5.0 (Windows NT 10.0; Win64; x64) AppleWebKit/537.36 (KHTML, like Gecko) Chrome/120.0.0.0 Safari/537.36" etag="G6i2V_SpZ2LvBAajTsdi" version="22.1.21" type="device">
  <diagram name="Сторінка-1" id="1f4-ID837XROo5qoey0u">
    <mxGraphModel dx="989" dy="538" grid="1" gridSize="10" guides="1" tooltips="1" connect="1" arrows="1" fold="1" page="1" pageScale="1" pageWidth="827" pageHeight="1169" math="0" shadow="0">
      <root>
        <mxCell id="0" />
        <mxCell id="1" parent="0" />
        <mxCell id="c3VLMMmiDULWEXU0vswc-4" value="Field" style="rounded=1;whiteSpace=wrap;html=1;" parent="1" vertex="1">
          <mxGeometry x="240" y="580" width="120" height="60" as="geometry" />
        </mxCell>
        <mxCell id="fTUaqHF9qZutrLxfTOc_-7" style="edgeStyle=orthogonalEdgeStyle;rounded=0;orthogonalLoop=1;jettySize=auto;html=1;entryX=0.5;entryY=1;entryDx=0;entryDy=0;" edge="1" parent="1" source="c3VLMMmiDULWEXU0vswc-5" target="c3VLMMmiDULWEXU0vswc-4">
          <mxGeometry relative="1" as="geometry">
            <Array as="points">
              <mxPoint x="110" y="670" />
              <mxPoint x="300" y="670" />
            </Array>
          </mxGeometry>
        </mxCell>
        <mxCell id="c3VLMMmiDULWEXU0vswc-5" value="Birthday" style="rounded=1;whiteSpace=wrap;html=1;" parent="1" vertex="1">
          <mxGeometry x="60" y="700" width="100" height="30" as="geometry" />
        </mxCell>
        <mxCell id="fTUaqHF9qZutrLxfTOc_-4" style="edgeStyle=orthogonalEdgeStyle;rounded=0;orthogonalLoop=1;jettySize=auto;html=1;entryX=0.5;entryY=1;entryDx=0;entryDy=0;" edge="1" parent="1" source="c3VLMMmiDULWEXU0vswc-7" target="c3VLMMmiDULWEXU0vswc-4">
          <mxGeometry relative="1" as="geometry" />
        </mxCell>
        <mxCell id="c3VLMMmiDULWEXU0vswc-7" value="Email" style="rounded=1;whiteSpace=wrap;html=1;" parent="1" vertex="1">
          <mxGeometry x="180" y="700" width="110" height="30" as="geometry" />
        </mxCell>
        <mxCell id="fTUaqHF9qZutrLxfTOc_-8" style="edgeStyle=orthogonalEdgeStyle;rounded=0;orthogonalLoop=1;jettySize=auto;html=1;entryX=0.5;entryY=1;entryDx=0;entryDy=0;" edge="1" parent="1" source="c3VLMMmiDULWEXU0vswc-9" target="c3VLMMmiDULWEXU0vswc-4">
          <mxGeometry relative="1" as="geometry">
            <Array as="points">
              <mxPoint x="505" y="670" />
              <mxPoint x="300" y="670" />
            </Array>
          </mxGeometry>
        </mxCell>
        <mxCell id="c3VLMMmiDULWEXU0vswc-9" value="Name" style="rounded=1;whiteSpace=wrap;html=1;" parent="1" vertex="1">
          <mxGeometry x="450" y="700" width="110" height="30" as="geometry" />
        </mxCell>
        <mxCell id="c3VLMMmiDULWEXU0vswc-13" value="Note" style="rounded=1;whiteSpace=wrap;html=1;" parent="1" vertex="1">
          <mxGeometry x="640" y="580" width="120" height="60" as="geometry" />
        </mxCell>
        <mxCell id="QrveO6mJvzCXg89gcwro-1" value="" style="edgeStyle=orthogonalEdgeStyle;rounded=0;orthogonalLoop=1;jettySize=auto;html=1;" parent="1" source="c3VLMMmiDULWEXU0vswc-14" target="c3VLMMmiDULWEXU0vswc-13" edge="1">
          <mxGeometry relative="1" as="geometry">
            <Array as="points">
              <mxPoint x="700" y="690" />
              <mxPoint x="700" y="690" />
            </Array>
          </mxGeometry>
        </mxCell>
        <mxCell id="c3VLMMmiDULWEXU0vswc-14" value="&lt;div style=&quot;font-family: &amp;quot;JetBrains Mono&amp;quot;, monospace;&quot;&gt;PersonalNoteAssistant&lt;/div&gt;" style="rounded=1;whiteSpace=wrap;html=1;" parent="1" vertex="1">
          <mxGeometry x="620" y="710" width="160" height="60" as="geometry" />
        </mxCell>
        <mxCell id="fTUaqHF9qZutrLxfTOc_-3" value="" style="edgeStyle=orthogonalEdgeStyle;rounded=0;orthogonalLoop=1;jettySize=auto;html=1;" edge="1" parent="1" source="c3VLMMmiDULWEXU0vswc-15" target="c3VLMMmiDULWEXU0vswc-4">
          <mxGeometry relative="1" as="geometry" />
        </mxCell>
        <mxCell id="c3VLMMmiDULWEXU0vswc-15" value="Phone" style="rounded=1;whiteSpace=wrap;html=1;" parent="1" vertex="1">
          <mxGeometry x="310" y="700" width="110" height="30" as="geometry" />
        </mxCell>
        <mxCell id="fTUaqHF9qZutrLxfTOc_-9" value="" style="edgeStyle=orthogonalEdgeStyle;rounded=0;orthogonalLoop=1;jettySize=auto;html=1;entryX=0.5;entryY=1;entryDx=0;entryDy=0;" edge="1" parent="1" source="c3VLMMmiDULWEXU0vswc-17" target="c3VLMMmiDULWEXU0vswc-15">
          <mxGeometry relative="1" as="geometry">
            <Array as="points">
              <mxPoint x="310" y="750" />
              <mxPoint x="365" y="750" />
            </Array>
          </mxGeometry>
        </mxCell>
        <mxCell id="fTUaqHF9qZutrLxfTOc_-10" value="" style="edgeStyle=orthogonalEdgeStyle;rounded=0;orthogonalLoop=1;jettySize=auto;html=1;entryX=0.5;entryY=1;entryDx=0;entryDy=0;" edge="1" parent="1" source="c3VLMMmiDULWEXU0vswc-17" target="c3VLMMmiDULWEXU0vswc-7">
          <mxGeometry relative="1" as="geometry">
            <Array as="points">
              <mxPoint x="310" y="750" />
              <mxPoint x="235" y="750" />
            </Array>
          </mxGeometry>
        </mxCell>
        <mxCell id="fTUaqHF9qZutrLxfTOc_-13" value="" style="edgeStyle=orthogonalEdgeStyle;rounded=0;orthogonalLoop=1;jettySize=auto;html=1;entryX=0.5;entryY=1;entryDx=0;entryDy=0;" edge="1" parent="1" source="c3VLMMmiDULWEXU0vswc-17" target="c3VLMMmiDULWEXU0vswc-5">
          <mxGeometry relative="1" as="geometry">
            <Array as="points">
              <mxPoint x="310" y="750" />
              <mxPoint x="110" y="750" />
            </Array>
          </mxGeometry>
        </mxCell>
        <mxCell id="fTUaqHF9qZutrLxfTOc_-14" style="edgeStyle=orthogonalEdgeStyle;rounded=0;orthogonalLoop=1;jettySize=auto;html=1;entryX=0.5;entryY=1;entryDx=0;entryDy=0;" edge="1" parent="1" source="c3VLMMmiDULWEXU0vswc-17" target="c3VLMMmiDULWEXU0vswc-9">
          <mxGeometry relative="1" as="geometry">
            <Array as="points">
              <mxPoint x="310" y="750" />
              <mxPoint x="505" y="750" />
            </Array>
          </mxGeometry>
        </mxCell>
        <mxCell id="c3VLMMmiDULWEXU0vswc-17" value="Record" style="rounded=1;whiteSpace=wrap;html=1;" parent="1" vertex="1">
          <mxGeometry x="250" y="770" width="120" height="40" as="geometry" />
        </mxCell>
        <mxCell id="fTUaqHF9qZutrLxfTOc_-16" value="" style="edgeStyle=orthogonalEdgeStyle;rounded=0;orthogonalLoop=1;jettySize=auto;html=1;" edge="1" parent="1" source="fTUaqHF9qZutrLxfTOc_-15" target="c3VLMMmiDULWEXU0vswc-17">
          <mxGeometry relative="1" as="geometry" />
        </mxCell>
        <mxCell id="fTUaqHF9qZutrLxfTOc_-15" value="&lt;div style=&quot;font-family: &amp;quot;JetBrains Mono&amp;quot;, monospace;&quot;&gt;AddressBook&lt;/div&gt;" style="rounded=1;whiteSpace=wrap;html=1;" vertex="1" parent="1">
          <mxGeometry x="250" y="850" width="120" height="40" as="geometry" />
        </mxCell>
      </root>
    </mxGraphModel>
  </diagram>
</mxfile>
